<mxfile host="app.diagrams.net" agent="Mozilla/5.0 (Windows NT 10.0; Win64; x64) AppleWebKit/537.36 (KHTML, like Gecko) Chrome/128.0.0.0 Safari/537.36 OPR/114.0.0.0" version="25.0.1">
  <diagram name="Страница — 1" id="LdiEUT82dOX2tQ43bUru">
    <mxGraphModel dx="1878" dy="1040" grid="1" gridSize="10" guides="1" tooltips="1" connect="1" arrows="1" fold="1" page="1" pageScale="1" pageWidth="827" pageHeight="1169" math="0" shadow="0">
      <root>
        <mxCell id="0" />
        <mxCell id="1" parent="0" />
        <mxCell id="phnK9DD46O-W-GnVpXTI-1" value="" style="ellipse;fillColor=strokeColor;html=1;" parent="1" vertex="1">
          <mxGeometry x="810" y="19" width="30" height="30" as="geometry" />
        </mxCell>
        <mxCell id="phnK9DD46O-W-GnVpXTI-2" value="" style="ellipse;html=1;shape=endState;fillColor=strokeColor;" parent="1" vertex="1">
          <mxGeometry x="810" y="555" width="30" height="30" as="geometry" />
        </mxCell>
        <mxCell id="phnK9DD46O-W-GnVpXTI-5" value="&lt;div&gt;Каталог&lt;/div&gt;" style="rounded=1;whiteSpace=wrap;html=1;" parent="1" vertex="1">
          <mxGeometry x="160" y="159" width="105" height="50" as="geometry" />
        </mxCell>
        <mxCell id="phnK9DD46O-W-GnVpXTI-7" style="edgeStyle=orthogonalEdgeStyle;rounded=0;orthogonalLoop=1;jettySize=auto;html=1;exitX=0.5;exitY=1;exitDx=0;exitDy=0;" parent="1" source="phnK9DD46O-W-GnVpXTI-5" target="phnK9DD46O-W-GnVpXTI-5" edge="1">
          <mxGeometry relative="1" as="geometry" />
        </mxCell>
        <mxCell id="phnK9DD46O-W-GnVpXTI-9" value="" style="fontStyle=0;labelPosition=right;verticalLabelPosition=middle;align=left;verticalAlign=middle;spacingLeft=2;html=1;points=[[0,0.5],[1,0.5]];fillColor=strokeColor;" parent="1" vertex="1">
          <mxGeometry y="110" width="1770" height="10" as="geometry" />
        </mxCell>
        <mxCell id="phnK9DD46O-W-GnVpXTI-17" value="" style="endArrow=classic;html=1;rounded=0;entryX=0.5;entryY=0;entryDx=0;entryDy=0;exitX=0.15;exitY=1.098;exitDx=0;exitDy=0;exitPerimeter=0;" parent="1" target="phnK9DD46O-W-GnVpXTI-5" edge="1">
          <mxGeometry width="50" height="50" relative="1" as="geometry">
            <mxPoint x="212.5" y="120.9799999999999" as="sourcePoint" />
            <mxPoint x="480" y="150" as="targetPoint" />
          </mxGeometry>
        </mxCell>
        <mxCell id="phnK9DD46O-W-GnVpXTI-19" value="" style="endArrow=classic;html=1;rounded=0;entryX=0.5;entryY=0;entryDx=0;entryDy=0;exitX=0.08;exitY=1.107;exitDx=0;exitDy=0;exitPerimeter=0;" parent="1" edge="1">
          <mxGeometry width="50" height="50" relative="1" as="geometry">
            <mxPoint x="462.1" y="120" as="sourcePoint" />
            <mxPoint x="462.1" y="159" as="targetPoint" />
          </mxGeometry>
        </mxCell>
        <mxCell id="2umJtm8P9YfVA5-F-WJ4-15" value="Аренда" style="rounded=1;whiteSpace=wrap;html=1;" parent="1" vertex="1">
          <mxGeometry x="425" y="158" width="75" height="50" as="geometry" />
        </mxCell>
        <mxCell id="g6xwZ5atyA5-X0QdN6Mz-1" value="" style="fontStyle=0;labelPosition=right;verticalLabelPosition=middle;align=left;verticalAlign=middle;spacingLeft=2;html=1;points=[[0,0.5],[1,0.5]];fillColor=strokeColor;" parent="1" vertex="1">
          <mxGeometry y="480" width="1770" height="10" as="geometry" />
        </mxCell>
        <mxCell id="PYD1fVJXsjv2zyDBvjU6-1" value="&lt;div style=&quot;font-size: 11px;&quot;&gt;Сортировка&lt;/div&gt;" style="rounded=1;whiteSpace=wrap;html=1;fontSize=11;" parent="1" vertex="1">
          <mxGeometry x="53" y="300" width="70" height="50" as="geometry" />
        </mxCell>
        <mxCell id="PYD1fVJXsjv2zyDBvjU6-2" value="" style="endArrow=classic;html=1;rounded=0;exitX=0.072;exitY=0.971;exitDx=0;exitDy=0;exitPerimeter=0;" parent="1" edge="1">
          <mxGeometry width="50" height="50" relative="1" as="geometry">
            <mxPoint x="212.21" y="209" as="sourcePoint" />
            <mxPoint x="212" y="250" as="targetPoint" />
          </mxGeometry>
        </mxCell>
        <mxCell id="DTNieWp4X9iYOQBlKMiP-2" value="" style="fontStyle=0;labelPosition=right;verticalLabelPosition=middle;align=left;verticalAlign=middle;spacingLeft=2;html=1;points=[[0,0.5],[1,0.5]];fillColor=strokeColor;" parent="1" vertex="1">
          <mxGeometry x="40" y="250" width="340" height="10" as="geometry" />
        </mxCell>
        <mxCell id="DTNieWp4X9iYOQBlKMiP-3" value="" style="endArrow=classic;html=1;rounded=0;exitX=0.5;exitY=1;exitDx=0;exitDy=0;" parent="1" edge="1">
          <mxGeometry width="50" height="50" relative="1" as="geometry">
            <mxPoint x="89" y="260" as="sourcePoint" />
            <mxPoint x="89" y="300" as="targetPoint" />
          </mxGeometry>
        </mxCell>
        <mxCell id="DTNieWp4X9iYOQBlKMiP-5" value="" style="endArrow=classic;html=1;rounded=0;exitX=0.5;exitY=1;exitDx=0;exitDy=0;" parent="1" edge="1">
          <mxGeometry width="50" height="50" relative="1" as="geometry">
            <mxPoint x="89.57000000000005" y="350" as="sourcePoint" />
            <mxPoint x="89.57000000000005" y="390" as="targetPoint" />
          </mxGeometry>
        </mxCell>
        <mxCell id="DTNieWp4X9iYOQBlKMiP-6" value="Просмотр спецтехники" style="rounded=1;whiteSpace=wrap;html=1;fontSize=11;" parent="1" vertex="1">
          <mxGeometry x="134" y="300" width="70" height="50" as="geometry" />
        </mxCell>
        <mxCell id="DTNieWp4X9iYOQBlKMiP-7" value="" style="endArrow=classic;html=1;rounded=0;exitX=0.5;exitY=1;exitDx=0;exitDy=0;" parent="1" edge="1">
          <mxGeometry width="50" height="50" relative="1" as="geometry">
            <mxPoint x="168.57" y="260" as="sourcePoint" />
            <mxPoint x="168.57" y="300" as="targetPoint" />
          </mxGeometry>
        </mxCell>
        <mxCell id="DTNieWp4X9iYOQBlKMiP-9" value="" style="endArrow=classic;html=1;rounded=0;exitX=0.5;exitY=1;exitDx=0;exitDy=0;" parent="1" edge="1">
          <mxGeometry width="50" height="50" relative="1" as="geometry">
            <mxPoint x="168.57" y="350" as="sourcePoint" />
            <mxPoint x="168.57" y="390" as="targetPoint" />
          </mxGeometry>
        </mxCell>
        <mxCell id="DTNieWp4X9iYOQBlKMiP-10" value="Возможность добавить в корзину" style="rounded=1;whiteSpace=wrap;html=1;fontSize=11;" parent="1" vertex="1">
          <mxGeometry x="219" y="300" width="70" height="50" as="geometry" />
        </mxCell>
        <mxCell id="DTNieWp4X9iYOQBlKMiP-11" value="" style="endArrow=classic;html=1;rounded=0;exitX=0.5;exitY=1;exitDx=0;exitDy=0;" parent="1" edge="1">
          <mxGeometry width="50" height="50" relative="1" as="geometry">
            <mxPoint x="253.57" y="260" as="sourcePoint" />
            <mxPoint x="253.57" y="300" as="targetPoint" />
          </mxGeometry>
        </mxCell>
        <mxCell id="DTNieWp4X9iYOQBlKMiP-12" value="" style="endArrow=classic;html=1;rounded=0;exitX=0.5;exitY=1;exitDx=0;exitDy=0;" parent="1" edge="1">
          <mxGeometry width="50" height="50" relative="1" as="geometry">
            <mxPoint x="253.7" y="350" as="sourcePoint" />
            <mxPoint x="253.7" y="390" as="targetPoint" />
          </mxGeometry>
        </mxCell>
        <mxCell id="DTNieWp4X9iYOQBlKMiP-13" value="&lt;font style=&quot;font-size: 11px;&quot;&gt;Возможность развернуть список в каталоге&lt;/font&gt;" style="rounded=1;whiteSpace=wrap;html=1;fontSize=11;" parent="1" vertex="1">
          <mxGeometry x="299" y="300" width="70" height="50" as="geometry" />
        </mxCell>
        <mxCell id="DTNieWp4X9iYOQBlKMiP-14" value="" style="endArrow=classic;html=1;rounded=0;exitX=0.5;exitY=1;exitDx=0;exitDy=0;" parent="1" edge="1">
          <mxGeometry width="50" height="50" relative="1" as="geometry">
            <mxPoint x="333.64" y="260" as="sourcePoint" />
            <mxPoint x="333.64" y="300" as="targetPoint" />
          </mxGeometry>
        </mxCell>
        <mxCell id="DTNieWp4X9iYOQBlKMiP-15" value="" style="endArrow=classic;html=1;rounded=0;exitX=0.5;exitY=1;exitDx=0;exitDy=0;" parent="1" edge="1">
          <mxGeometry width="50" height="50" relative="1" as="geometry">
            <mxPoint x="333.64" y="350" as="sourcePoint" />
            <mxPoint x="333.64" y="390" as="targetPoint" />
          </mxGeometry>
        </mxCell>
        <mxCell id="DTNieWp4X9iYOQBlKMiP-16" value="" style="fontStyle=0;labelPosition=right;verticalLabelPosition=middle;align=left;verticalAlign=middle;spacingLeft=2;html=1;points=[[0,0.5],[1,0.5]];fillColor=strokeColor;" parent="1" vertex="1">
          <mxGeometry x="40" y="390" width="340" height="10" as="geometry" />
        </mxCell>
        <mxCell id="DTNieWp4X9iYOQBlKMiP-18" value="" style="endArrow=classic;html=1;rounded=0;exitX=0.08;exitY=1.107;exitDx=0;exitDy=0;exitPerimeter=0;" parent="1" edge="1">
          <mxGeometry width="50" height="50" relative="1" as="geometry">
            <mxPoint x="462.13" y="209" as="sourcePoint" />
            <mxPoint x="462" y="300" as="targetPoint" />
          </mxGeometry>
        </mxCell>
        <mxCell id="DTNieWp4X9iYOQBlKMiP-19" value="Просмотр условий аренды" style="rounded=1;whiteSpace=wrap;html=1;" parent="1" vertex="1">
          <mxGeometry x="425" y="300" width="75" height="50" as="geometry" />
        </mxCell>
        <mxCell id="DTNieWp4X9iYOQBlKMiP-21" value="Просмотр отзывов" style="rounded=1;whiteSpace=wrap;html=1;fontSize=11;" parent="1" vertex="1">
          <mxGeometry x="560" y="300" width="75" height="50" as="geometry" />
        </mxCell>
        <mxCell id="DTNieWp4X9iYOQBlKMiP-22" value="" style="endArrow=classic;html=1;rounded=0;entryX=0.5;entryY=0;entryDx=0;entryDy=0;exitX=0.08;exitY=1.107;exitDx=0;exitDy=0;exitPerimeter=0;" parent="1" edge="1">
          <mxGeometry width="50" height="50" relative="1" as="geometry">
            <mxPoint x="684.23" y="119" as="sourcePoint" />
            <mxPoint x="684.23" y="158" as="targetPoint" />
          </mxGeometry>
        </mxCell>
        <mxCell id="DTNieWp4X9iYOQBlKMiP-25" value="" style="fontStyle=0;labelPosition=right;verticalLabelPosition=middle;align=left;verticalAlign=middle;spacingLeft=2;html=1;points=[[0,0.5],[1,0.5]];fillColor=strokeColor;" parent="1" vertex="1">
          <mxGeometry x="560" y="250" width="250" height="10" as="geometry" />
        </mxCell>
        <mxCell id="DTNieWp4X9iYOQBlKMiP-26" value="" style="endArrow=classic;html=1;rounded=0;exitX=0.5;exitY=1;exitDx=0;exitDy=0;" parent="1" edge="1">
          <mxGeometry width="50" height="50" relative="1" as="geometry">
            <mxPoint x="597.0699999999999" y="260" as="sourcePoint" />
            <mxPoint x="597.0699999999999" y="300" as="targetPoint" />
          </mxGeometry>
        </mxCell>
        <mxCell id="DTNieWp4X9iYOQBlKMiP-27" value="Добавить отзыв" style="rounded=1;whiteSpace=wrap;html=1;" parent="1" vertex="1">
          <mxGeometry x="648" y="300" width="75" height="50" as="geometry" />
        </mxCell>
        <mxCell id="DTNieWp4X9iYOQBlKMiP-28" value="" style="endArrow=classic;html=1;rounded=0;exitX=0.5;exitY=1;exitDx=0;exitDy=0;" parent="1" edge="1">
          <mxGeometry width="50" height="50" relative="1" as="geometry">
            <mxPoint x="686" y="260" as="sourcePoint" />
            <mxPoint x="686" y="300" as="targetPoint" />
          </mxGeometry>
        </mxCell>
        <mxCell id="DTNieWp4X9iYOQBlKMiP-30" value="Возможность отсортировать список в отзывах" style="rounded=1;whiteSpace=wrap;html=1;fontSize=11;" parent="1" vertex="1">
          <mxGeometry x="735" y="300" width="75" height="50" as="geometry" />
        </mxCell>
        <mxCell id="DTNieWp4X9iYOQBlKMiP-31" value="" style="endArrow=classic;html=1;rounded=0;exitX=0.5;exitY=1;exitDx=0;exitDy=0;" parent="1" edge="1">
          <mxGeometry width="50" height="50" relative="1" as="geometry">
            <mxPoint x="773" y="260" as="sourcePoint" />
            <mxPoint x="773" y="300" as="targetPoint" />
          </mxGeometry>
        </mxCell>
        <mxCell id="DTNieWp4X9iYOQBlKMiP-33" value="" style="endArrow=classic;html=1;rounded=0;exitX=0.5;exitY=1;exitDx=0;exitDy=0;" parent="1" edge="1">
          <mxGeometry width="50" height="50" relative="1" as="geometry">
            <mxPoint x="597.0699999999999" y="350" as="sourcePoint" />
            <mxPoint x="597.0699999999999" y="390" as="targetPoint" />
          </mxGeometry>
        </mxCell>
        <mxCell id="DTNieWp4X9iYOQBlKMiP-34" value="" style="endArrow=classic;html=1;rounded=0;exitX=0.5;exitY=1;exitDx=0;exitDy=0;" parent="1" edge="1">
          <mxGeometry width="50" height="50" relative="1" as="geometry">
            <mxPoint x="686" y="350" as="sourcePoint" />
            <mxPoint x="686" y="390" as="targetPoint" />
          </mxGeometry>
        </mxCell>
        <mxCell id="DTNieWp4X9iYOQBlKMiP-35" value="" style="endArrow=classic;html=1;rounded=0;exitX=0.5;exitY=1;exitDx=0;exitDy=0;" parent="1" edge="1">
          <mxGeometry width="50" height="50" relative="1" as="geometry">
            <mxPoint x="773" y="350" as="sourcePoint" />
            <mxPoint x="773" y="390" as="targetPoint" />
          </mxGeometry>
        </mxCell>
        <mxCell id="DTNieWp4X9iYOQBlKMiP-36" value="" style="fontStyle=0;labelPosition=right;verticalLabelPosition=middle;align=left;verticalAlign=middle;spacingLeft=2;html=1;points=[[0,0.5],[1,0.5]];fillColor=strokeColor;" parent="1" vertex="1">
          <mxGeometry x="560" y="389" width="250" height="10" as="geometry" />
        </mxCell>
        <mxCell id="DTNieWp4X9iYOQBlKMiP-37" value="Отзывы" style="rounded=1;whiteSpace=wrap;html=1;" parent="1" vertex="1">
          <mxGeometry x="648" y="158" width="75" height="50" as="geometry" />
        </mxCell>
        <mxCell id="DTNieWp4X9iYOQBlKMiP-39" value="" style="endArrow=classic;html=1;rounded=0;entryX=0.499;entryY=0;entryDx=0;entryDy=0;exitX=0.08;exitY=1.107;exitDx=0;exitDy=0;exitPerimeter=0;entryPerimeter=0;" parent="1" target="DTNieWp4X9iYOQBlKMiP-25" edge="1">
          <mxGeometry width="50" height="50" relative="1" as="geometry">
            <mxPoint x="684.73" y="208" as="sourcePoint" />
            <mxPoint x="684.73" y="247" as="targetPoint" />
          </mxGeometry>
        </mxCell>
        <mxCell id="DTNieWp4X9iYOQBlKMiP-40" value="" style="endArrow=classic;html=1;rounded=0;exitX=0.497;exitY=1.1;exitDx=0;exitDy=0;exitPerimeter=0;entryX=0.403;entryY=0;entryDx=0;entryDy=0;entryPerimeter=0;" parent="1" edge="1" source="DTNieWp4X9iYOQBlKMiP-36">
          <mxGeometry width="50" height="50" relative="1" as="geometry">
            <mxPoint x="684.7" y="160" as="sourcePoint" />
            <mxPoint x="684.5" y="480" as="targetPoint" />
          </mxGeometry>
        </mxCell>
        <mxCell id="DTNieWp4X9iYOQBlKMiP-41" value="Контакты" style="rounded=1;whiteSpace=wrap;html=1;" parent="1" vertex="1">
          <mxGeometry x="850" y="158" width="75" height="50" as="geometry" />
        </mxCell>
        <mxCell id="DTNieWp4X9iYOQBlKMiP-42" value="Просмотр контактов" style="rounded=1;whiteSpace=wrap;html=1;" parent="1" vertex="1">
          <mxGeometry x="850" y="300" width="75" height="50" as="geometry" />
        </mxCell>
        <mxCell id="DTNieWp4X9iYOQBlKMiP-43" value="" style="endArrow=classic;html=1;rounded=0;entryX=0.5;entryY=0;entryDx=0;entryDy=0;exitX=0.5;exitY=1;exitDx=0;exitDy=0;" parent="1" source="DTNieWp4X9iYOQBlKMiP-41" target="DTNieWp4X9iYOQBlKMiP-42" edge="1">
          <mxGeometry width="50" height="50" relative="1" as="geometry">
            <mxPoint x="888" y="210" as="sourcePoint" />
            <mxPoint x="887.05" y="291" as="targetPoint" />
          </mxGeometry>
        </mxCell>
        <mxCell id="DTNieWp4X9iYOQBlKMiP-44" value="" style="endArrow=classic;html=1;rounded=0;exitX=0.08;exitY=1.107;exitDx=0;exitDy=0;exitPerimeter=0;entryX=0.5;entryY=0;entryDx=0;entryDy=0;" parent="1" target="DTNieWp4X9iYOQBlKMiP-41" edge="1">
          <mxGeometry width="50" height="50" relative="1" as="geometry">
            <mxPoint x="887.64" y="120" as="sourcePoint" />
            <mxPoint x="887.36" y="151" as="targetPoint" />
          </mxGeometry>
        </mxCell>
        <mxCell id="DTNieWp4X9iYOQBlKMiP-45" value="" style="endArrow=classic;html=1;rounded=0;exitX=0.5;exitY=1;exitDx=0;exitDy=0;entryX=0.502;entryY=-0.093;entryDx=0;entryDy=0;entryPerimeter=0;" parent="1" edge="1" target="g6xwZ5atyA5-X0QdN6Mz-1" source="DTNieWp4X9iYOQBlKMiP-42">
          <mxGeometry width="50" height="50" relative="1" as="geometry">
            <mxPoint x="887" y="158" as="sourcePoint" />
            <mxPoint x="890" y="470" as="targetPoint" />
          </mxGeometry>
        </mxCell>
        <mxCell id="DF6KW3ColOsK598k7NC--4" value="Корзина" style="rounded=1;whiteSpace=wrap;html=1;" vertex="1" parent="1">
          <mxGeometry x="1055" y="157" width="75" height="50" as="geometry" />
        </mxCell>
        <mxCell id="DF6KW3ColOsK598k7NC--5" value="" style="endArrow=classic;html=1;rounded=0;exitX=0.617;exitY=1.14;exitDx=0;exitDy=0;exitPerimeter=0;entryX=0.5;entryY=0;entryDx=0;entryDy=0;" edge="1" parent="1" source="phnK9DD46O-W-GnVpXTI-9" target="DF6KW3ColOsK598k7NC--4">
          <mxGeometry width="50" height="50" relative="1" as="geometry">
            <mxPoint x="1093.6399999999999" y="119" as="sourcePoint" />
            <mxPoint x="1090" y="150" as="targetPoint" />
          </mxGeometry>
        </mxCell>
        <mxCell id="DF6KW3ColOsK598k7NC--6" value="Оформление заказа" style="rounded=1;whiteSpace=wrap;html=1;" vertex="1" parent="1">
          <mxGeometry x="1382.5" y="157" width="75" height="50" as="geometry" />
        </mxCell>
        <mxCell id="DF6KW3ColOsK598k7NC--9" value="" style="endArrow=classic;html=1;rounded=0;entryX=0.117;entryY=0.049;entryDx=0;entryDy=0;entryPerimeter=0;exitX=0.38;exitY=1.028;exitDx=0;exitDy=0;exitPerimeter=0;" edge="1" parent="1" target="g6xwZ5atyA5-X0QdN6Mz-1">
          <mxGeometry width="50" height="50" relative="1" as="geometry">
            <mxPoint x="206.38999999999987" y="400.28" as="sourcePoint" />
            <mxPoint x="206.07999999999993" y="669.8999999999999" as="targetPoint" />
          </mxGeometry>
        </mxCell>
        <mxCell id="DF6KW3ColOsK598k7NC--10" value="" style="endArrow=classic;html=1;rounded=0;exitX=0.5;exitY=1;exitDx=0;exitDy=0;entryX=0.262;entryY=-0.12;entryDx=0;entryDy=0;entryPerimeter=0;" edge="1" parent="1" source="DTNieWp4X9iYOQBlKMiP-19" target="g6xwZ5atyA5-X0QdN6Mz-1">
          <mxGeometry width="50" height="50" relative="1" as="geometry">
            <mxPoint x="462.20000000000005" y="160" as="sourcePoint" />
            <mxPoint x="461.94000000000005" y="479.9000000000001" as="targetPoint" />
          </mxGeometry>
        </mxCell>
        <mxCell id="DF6KW3ColOsK598k7NC--12" value="Товар" style="rounded=1;whiteSpace=wrap;html=1;" vertex="1" parent="1">
          <mxGeometry x="1642.5" y="159" width="75" height="50" as="geometry" />
        </mxCell>
        <mxCell id="DF6KW3ColOsK598k7NC--13" value="" style="endArrow=classic;html=1;rounded=0;exitX=0.08;exitY=1.107;exitDx=0;exitDy=0;exitPerimeter=0;entryX=0.5;entryY=0;entryDx=0;entryDy=0;" edge="1" parent="1">
          <mxGeometry width="50" height="50" relative="1" as="geometry">
            <mxPoint x="1419.71" y="119" as="sourcePoint" />
            <mxPoint x="1420.07" y="157" as="targetPoint" />
          </mxGeometry>
        </mxCell>
        <mxCell id="DF6KW3ColOsK598k7NC--14" value="" style="endArrow=classic;html=1;rounded=0;exitX=0.949;exitY=1.073;exitDx=0;exitDy=0;exitPerimeter=0;entryX=0.5;entryY=0;entryDx=0;entryDy=0;" edge="1" parent="1" source="phnK9DD46O-W-GnVpXTI-9" target="DF6KW3ColOsK598k7NC--12">
          <mxGeometry width="50" height="50" relative="1" as="geometry">
            <mxPoint x="1702.17" y="120" as="sourcePoint" />
            <mxPoint x="1702.53" y="158" as="targetPoint" />
          </mxGeometry>
        </mxCell>
        <mxCell id="DF6KW3ColOsK598k7NC--15" value="Список добавленных товаров" style="rounded=1;whiteSpace=wrap;html=1;" vertex="1" parent="1">
          <mxGeometry x="967.5" y="300" width="75" height="50" as="geometry" />
        </mxCell>
        <mxCell id="DF6KW3ColOsK598k7NC--16" value="Добавление купона" style="rounded=1;whiteSpace=wrap;html=1;" vertex="1" parent="1">
          <mxGeometry x="1062.5" y="300" width="75" height="50" as="geometry" />
        </mxCell>
        <mxCell id="DF6KW3ColOsK598k7NC--17" value="Выбор времени на арендуемую технику" style="rounded=1;whiteSpace=wrap;html=1;" vertex="1" parent="1">
          <mxGeometry x="1157.5" y="300" width="75" height="50" as="geometry" />
        </mxCell>
        <mxCell id="DF6KW3ColOsK598k7NC--18" value="" style="fontStyle=0;labelPosition=right;verticalLabelPosition=middle;align=left;verticalAlign=middle;spacingLeft=2;html=1;points=[[0,0.5],[1,0.5]];fillColor=strokeColor;" vertex="1" parent="1">
          <mxGeometry x="960" y="240" width="280" height="10" as="geometry" />
        </mxCell>
        <mxCell id="DF6KW3ColOsK598k7NC--19" value="" style="endArrow=classic;html=1;rounded=0;exitX=0.161;exitY=1.066;exitDx=0;exitDy=0;exitPerimeter=0;" edge="1" parent="1" source="DF6KW3ColOsK598k7NC--18">
          <mxGeometry width="50" height="50" relative="1" as="geometry">
            <mxPoint x="1004.83" y="260" as="sourcePoint" />
            <mxPoint x="1004.83" y="300" as="targetPoint" />
          </mxGeometry>
        </mxCell>
        <mxCell id="DF6KW3ColOsK598k7NC--20" value="" style="endArrow=classic;html=1;rounded=0;exitX=0.161;exitY=1.066;exitDx=0;exitDy=0;exitPerimeter=0;" edge="1" parent="1">
          <mxGeometry width="50" height="50" relative="1" as="geometry">
            <mxPoint x="1099.93" y="250" as="sourcePoint" />
            <mxPoint x="1100" y="300" as="targetPoint" />
          </mxGeometry>
        </mxCell>
        <mxCell id="DF6KW3ColOsK598k7NC--21" value="" style="endArrow=classic;html=1;rounded=0;exitX=0.161;exitY=1.066;exitDx=0;exitDy=0;exitPerimeter=0;" edge="1" parent="1">
          <mxGeometry width="50" height="50" relative="1" as="geometry">
            <mxPoint x="1194.76" y="250" as="sourcePoint" />
            <mxPoint x="1194.83" y="300" as="targetPoint" />
          </mxGeometry>
        </mxCell>
        <mxCell id="DF6KW3ColOsK598k7NC--22" value="" style="endArrow=classic;html=1;rounded=0;entryX=0.163;entryY=-0.064;entryDx=0;entryDy=0;entryPerimeter=0;" edge="1" parent="1" target="DF6KW3ColOsK598k7NC--25">
          <mxGeometry width="50" height="50" relative="1" as="geometry">
            <mxPoint x="1005" y="350" as="sourcePoint" />
            <mxPoint x="1004.58" y="389" as="targetPoint" />
          </mxGeometry>
        </mxCell>
        <mxCell id="DF6KW3ColOsK598k7NC--23" value="" style="endArrow=classic;html=1;rounded=0;entryX=0.501;entryY=0.199;entryDx=0;entryDy=0;entryPerimeter=0;" edge="1" parent="1" target="DF6KW3ColOsK598k7NC--25">
          <mxGeometry width="50" height="50" relative="1" as="geometry">
            <mxPoint x="1100.42" y="350" as="sourcePoint" />
            <mxPoint x="1100" y="389" as="targetPoint" />
          </mxGeometry>
        </mxCell>
        <mxCell id="DF6KW3ColOsK598k7NC--24" value="" style="endArrow=classic;html=1;rounded=0;entryX=0.839;entryY=0.029;entryDx=0;entryDy=0;entryPerimeter=0;" edge="1" parent="1" target="DF6KW3ColOsK598k7NC--25">
          <mxGeometry width="50" height="50" relative="1" as="geometry">
            <mxPoint x="1195.13" y="350" as="sourcePoint" />
            <mxPoint x="1194.71" y="389" as="targetPoint" />
          </mxGeometry>
        </mxCell>
        <mxCell id="DF6KW3ColOsK598k7NC--25" value="" style="fontStyle=0;labelPosition=right;verticalLabelPosition=middle;align=left;verticalAlign=middle;spacingLeft=2;html=1;points=[[0,0.5],[1,0.5]];fillColor=strokeColor;" vertex="1" parent="1">
          <mxGeometry x="960" y="390" width="280" height="10" as="geometry" />
        </mxCell>
        <mxCell id="DF6KW3ColOsK598k7NC--29" value="" style="fontStyle=0;labelPosition=right;verticalLabelPosition=middle;align=left;verticalAlign=middle;spacingLeft=2;html=1;points=[[0,0.5],[1,0.5]];fillColor=strokeColor;" vertex="1" parent="1">
          <mxGeometry x="1270" y="240" width="280" height="10" as="geometry" />
        </mxCell>
        <mxCell id="DF6KW3ColOsK598k7NC--30" value="" style="endArrow=classic;html=1;rounded=0;exitX=0.5;exitY=1;exitDx=0;exitDy=0;" edge="1" parent="1" source="DF6KW3ColOsK598k7NC--4">
          <mxGeometry width="50" height="50" relative="1" as="geometry">
            <mxPoint x="1092.0800000000002" y="200" as="sourcePoint" />
            <mxPoint x="1093" y="240" as="targetPoint" />
          </mxGeometry>
        </mxCell>
        <mxCell id="DF6KW3ColOsK598k7NC--31" value="" style="endArrow=classic;html=1;rounded=0;exitX=0.161;exitY=1.066;exitDx=0;exitDy=0;exitPerimeter=0;" edge="1" parent="1">
          <mxGeometry width="50" height="50" relative="1" as="geometry">
            <mxPoint x="1307.21" y="250" as="sourcePoint" />
            <mxPoint x="1307.28" y="300" as="targetPoint" />
          </mxGeometry>
        </mxCell>
        <mxCell id="DF6KW3ColOsK598k7NC--32" value="Ввод контактной информации" style="rounded=1;whiteSpace=wrap;html=1;" vertex="1" parent="1">
          <mxGeometry x="1270" y="300" width="75" height="50" as="geometry" />
        </mxCell>
        <mxCell id="DF6KW3ColOsK598k7NC--33" value="Добавление примечания к заказу" style="rounded=1;whiteSpace=wrap;html=1;" vertex="1" parent="1">
          <mxGeometry x="1370" y="300" width="75" height="50" as="geometry" />
        </mxCell>
        <mxCell id="DF6KW3ColOsK598k7NC--34" value="" style="endArrow=classic;html=1;rounded=0;exitX=0.161;exitY=1.066;exitDx=0;exitDy=0;exitPerimeter=0;" edge="1" parent="1">
          <mxGeometry width="50" height="50" relative="1" as="geometry">
            <mxPoint x="1407.21" y="250" as="sourcePoint" />
            <mxPoint x="1407.28" y="300" as="targetPoint" />
          </mxGeometry>
        </mxCell>
        <mxCell id="DF6KW3ColOsK598k7NC--35" value="Возможность разместить заказ" style="rounded=1;whiteSpace=wrap;html=1;" vertex="1" parent="1">
          <mxGeometry x="1470" y="300" width="75" height="50" as="geometry" />
        </mxCell>
        <mxCell id="DF6KW3ColOsK598k7NC--36" value="" style="endArrow=classic;html=1;rounded=0;exitX=0.161;exitY=1.066;exitDx=0;exitDy=0;exitPerimeter=0;" edge="1" parent="1">
          <mxGeometry width="50" height="50" relative="1" as="geometry">
            <mxPoint x="1507.21" y="250" as="sourcePoint" />
            <mxPoint x="1507.28" y="300" as="targetPoint" />
          </mxGeometry>
        </mxCell>
        <mxCell id="DF6KW3ColOsK598k7NC--37" value="" style="fontStyle=0;labelPosition=right;verticalLabelPosition=middle;align=left;verticalAlign=middle;spacingLeft=2;html=1;points=[[0,0.5],[1,0.5]];fillColor=strokeColor;" vertex="1" parent="1">
          <mxGeometry x="1270" y="389" width="280" height="10" as="geometry" />
        </mxCell>
        <mxCell id="DF6KW3ColOsK598k7NC--39" value="" style="endArrow=classic;html=1;rounded=0;exitX=0.161;exitY=1.066;exitDx=0;exitDy=0;exitPerimeter=0;" edge="1" parent="1">
          <mxGeometry width="50" height="50" relative="1" as="geometry">
            <mxPoint x="1307.16" y="349" as="sourcePoint" />
            <mxPoint x="1307" y="390" as="targetPoint" />
          </mxGeometry>
        </mxCell>
        <mxCell id="DF6KW3ColOsK598k7NC--40" value="" style="endArrow=classic;html=1;rounded=0;exitX=0.161;exitY=1.066;exitDx=0;exitDy=0;exitPerimeter=0;" edge="1" parent="1">
          <mxGeometry width="50" height="50" relative="1" as="geometry">
            <mxPoint x="1407.52" y="349" as="sourcePoint" />
            <mxPoint x="1407.36" y="390" as="targetPoint" />
          </mxGeometry>
        </mxCell>
        <mxCell id="DF6KW3ColOsK598k7NC--41" value="" style="endArrow=classic;html=1;rounded=0;exitX=0.161;exitY=1.066;exitDx=0;exitDy=0;exitPerimeter=0;" edge="1" parent="1">
          <mxGeometry width="50" height="50" relative="1" as="geometry">
            <mxPoint x="1507.52" y="350" as="sourcePoint" />
            <mxPoint x="1507.36" y="391" as="targetPoint" />
          </mxGeometry>
        </mxCell>
        <mxCell id="DF6KW3ColOsK598k7NC--42" value="" style="endArrow=classic;html=1;rounded=0;exitX=0.08;exitY=1.107;exitDx=0;exitDy=0;exitPerimeter=0;" edge="1" parent="1">
          <mxGeometry width="50" height="50" relative="1" as="geometry">
            <mxPoint x="1419.7" y="207" as="sourcePoint" />
            <mxPoint x="1420" y="240" as="targetPoint" />
          </mxGeometry>
        </mxCell>
        <mxCell id="DF6KW3ColOsK598k7NC--43" value="" style="endArrow=classic;html=1;rounded=0;" edge="1" parent="1">
          <mxGeometry width="50" height="50" relative="1" as="geometry">
            <mxPoint x="1099.5" y="400" as="sourcePoint" />
            <mxPoint x="1100" y="479" as="targetPoint" />
          </mxGeometry>
        </mxCell>
        <mxCell id="DF6KW3ColOsK598k7NC--44" value="" style="endArrow=classic;html=1;rounded=0;entryX=0.625;entryY=-0.113;entryDx=0;entryDy=0;entryPerimeter=0;" edge="1" parent="1">
          <mxGeometry width="50" height="50" relative="1" as="geometry">
            <mxPoint x="1407.1" y="399" as="sourcePoint" />
            <mxPoint x="1407.6" y="478" as="targetPoint" />
          </mxGeometry>
        </mxCell>
        <mxCell id="DF6KW3ColOsK598k7NC--45" value="Просмотр информации о товаре" style="rounded=1;whiteSpace=wrap;html=1;" vertex="1" parent="1">
          <mxGeometry x="1595.63" y="300" width="75" height="50" as="geometry" />
        </mxCell>
        <mxCell id="DF6KW3ColOsK598k7NC--46" value="Добавление товара в корзину" style="rounded=1;whiteSpace=wrap;html=1;" vertex="1" parent="1">
          <mxGeometry x="1685.63" y="300" width="75" height="50" as="geometry" />
        </mxCell>
        <mxCell id="DF6KW3ColOsK598k7NC--49" value="" style="fontStyle=0;labelPosition=right;verticalLabelPosition=middle;align=left;verticalAlign=middle;spacingLeft=2;html=1;points=[[0,0.5],[1,0.5]];fillColor=strokeColor;" vertex="1" parent="1">
          <mxGeometry x="1586.25" y="240" width="183.75" height="10" as="geometry" />
        </mxCell>
        <mxCell id="DF6KW3ColOsK598k7NC--50" value="" style="endArrow=classic;html=1;rounded=0;exitX=0.161;exitY=1.066;exitDx=0;exitDy=0;exitPerimeter=0;" edge="1" parent="1">
          <mxGeometry width="50" height="50" relative="1" as="geometry">
            <mxPoint x="1632.91" y="250" as="sourcePoint" />
            <mxPoint x="1632.98" y="300" as="targetPoint" />
          </mxGeometry>
        </mxCell>
        <mxCell id="DF6KW3ColOsK598k7NC--51" value="" style="endArrow=classic;html=1;rounded=0;exitX=0.161;exitY=1.066;exitDx=0;exitDy=0;exitPerimeter=0;" edge="1" parent="1">
          <mxGeometry width="50" height="50" relative="1" as="geometry">
            <mxPoint x="1722.91" y="250" as="sourcePoint" />
            <mxPoint x="1722.98" y="300" as="targetPoint" />
          </mxGeometry>
        </mxCell>
        <mxCell id="DF6KW3ColOsK598k7NC--52" value="" style="fontStyle=0;labelPosition=right;verticalLabelPosition=middle;align=left;verticalAlign=middle;spacingLeft=2;html=1;points=[[0,0.5],[1,0.5]];fillColor=strokeColor;" vertex="1" parent="1">
          <mxGeometry x="1590" y="390" width="180" height="10" as="geometry" />
        </mxCell>
        <mxCell id="DF6KW3ColOsK598k7NC--53" value="" style="endArrow=classic;html=1;rounded=0;exitX=0.161;exitY=1.066;exitDx=0;exitDy=0;exitPerimeter=0;" edge="1" parent="1">
          <mxGeometry width="50" height="50" relative="1" as="geometry">
            <mxPoint x="1633.02" y="350" as="sourcePoint" />
            <mxPoint x="1632.86" y="391" as="targetPoint" />
          </mxGeometry>
        </mxCell>
        <mxCell id="DF6KW3ColOsK598k7NC--54" value="" style="endArrow=classic;html=1;rounded=0;exitX=0.161;exitY=1.066;exitDx=0;exitDy=0;exitPerimeter=0;" edge="1" parent="1">
          <mxGeometry width="50" height="50" relative="1" as="geometry">
            <mxPoint x="1723.02" y="350" as="sourcePoint" />
            <mxPoint x="1722.86" y="391" as="targetPoint" />
          </mxGeometry>
        </mxCell>
        <mxCell id="DF6KW3ColOsK598k7NC--55" style="edgeStyle=orthogonalEdgeStyle;rounded=0;orthogonalLoop=1;jettySize=auto;html=1;exitX=0.5;exitY=1;exitDx=0;exitDy=0;entryX=0.509;entryY=0.073;entryDx=0;entryDy=0;entryPerimeter=0;" edge="1" parent="1" source="DF6KW3ColOsK598k7NC--12" target="DF6KW3ColOsK598k7NC--49">
          <mxGeometry relative="1" as="geometry" />
        </mxCell>
        <mxCell id="DF6KW3ColOsK598k7NC--56" value="" style="endArrow=classic;html=1;rounded=0;entryX=0.625;entryY=-0.113;entryDx=0;entryDy=0;entryPerimeter=0;" edge="1" parent="1">
          <mxGeometry width="50" height="50" relative="1" as="geometry">
            <mxPoint x="1679.6699999999998" y="400" as="sourcePoint" />
            <mxPoint x="1680.1699999999998" y="479" as="targetPoint" />
          </mxGeometry>
        </mxCell>
        <mxCell id="DF6KW3ColOsK598k7NC--58" style="edgeStyle=orthogonalEdgeStyle;rounded=0;orthogonalLoop=1;jettySize=auto;html=1;exitX=0.5;exitY=1;exitDx=0;exitDy=0;entryX=0.466;entryY=0.074;entryDx=0;entryDy=0;entryPerimeter=0;" edge="1" parent="1" source="phnK9DD46O-W-GnVpXTI-1" target="phnK9DD46O-W-GnVpXTI-9">
          <mxGeometry relative="1" as="geometry" />
        </mxCell>
        <mxCell id="DF6KW3ColOsK598k7NC--59" style="edgeStyle=orthogonalEdgeStyle;rounded=0;orthogonalLoop=1;jettySize=auto;html=1;exitX=0.5;exitY=1;exitDx=0;exitDy=0;entryX=0.5;entryY=0;entryDx=0;entryDy=0;" edge="1" parent="1" target="phnK9DD46O-W-GnVpXTI-2">
          <mxGeometry relative="1" as="geometry">
            <mxPoint x="824.7" y="490" as="sourcePoint" />
            <mxPoint x="824.7" y="552" as="targetPoint" />
          </mxGeometry>
        </mxCell>
      </root>
    </mxGraphModel>
  </diagram>
</mxfile>
